<svg width="8" height="12" viewBox="0 0 8 12" fill="none" xmlns="http://www.w3.org/2000/svg">
<path d="M5.43737 5.9992L0.359018 1.76698C0.156318 1.5967 0.0293469 1.35302 0.00591087 1.08931C-0.0175257 0.825599 0.0644832 0.563345 0.233977 0.359978C0.403471 0.156612 0.646638 0.0287071 0.910227 0.00427356C1.17382 -0.02016 1.43634 0.0608689 1.64032 0.229616L7.6406 5.2305C7.75311 5.32451 7.84361 5.44207 7.90571 5.5749C7.96781 5.70772 8 5.85256 8 5.99919C8 6.14582 7.96781 6.29065 7.90571 6.42348C7.84361 6.5563 7.75311 6.67387 7.6406 6.76788L1.64032 11.7687C1.43644 11.9383 1.17359 12.02 0.909525 11.9958C0.645461 11.9717 0.401774 11.8437 0.231995 11.64C0.0622158 11.4363 -0.0197706 11.1735 0.00404644 10.9094C0.0278635 10.6453 0.155537 10.4014 0.359018 10.2314L5.43737 5.9992Z" fill="white"/>
</svg>
