<svg width="14" height="14" viewBox="0 0 14 14" fill="none" xmlns="http://www.w3.org/2000/svg">
<path d="M0.874985 12.2501C0.78351 12.2514 0.694218 12.2221 0.621235 12.167C0.564691 12.1267 0.518538 12.0736 0.486587 12.0119C0.454637 11.9503 0.437806 11.882 0.437485 11.8126V3.50008C0.432505 3.40468 0.45889 3.31027 0.51261 3.23127C0.566329 3.15227 0.64443 3.09302 0.734985 3.06258L4.67248 1.75008C4.75952 1.72393 4.85232 1.72393 4.93936 1.75008L9.18748 3.06258L12.9937 1.79383C13.0595 1.77214 13.1295 1.76638 13.198 1.77702C13.2664 1.78767 13.3314 1.81443 13.3875 1.85508C13.4395 1.89402 13.4822 1.94407 13.5125 2.00159C13.5428 2.0591 13.5598 2.12264 13.5625 2.18758V10.5001C13.5627 10.5918 13.5341 10.6813 13.4807 10.7559C13.4274 10.8304 13.3519 10.8864 13.265 10.9157L9.32748 12.2282C9.24045 12.2544 9.14765 12.2544 9.06061 12.2282L4.81248 10.9595L1.01498 12.2501C0.968531 12.2564 0.921438 12.2564 0.874985 12.2501ZM4.81248 10.0626C4.85455 10.0564 4.89729 10.0564 4.93936 10.0626L9.18748 11.3751L12.6875 10.207V2.79571L9.32748 3.93758C9.24045 3.96373 9.14765 3.96373 9.06061 3.93758L4.81248 2.64696L1.31248 3.81508V11.2045L4.67248 10.0845C4.71794 10.0708 4.76504 10.0635 4.81248 10.0626Z" fill="white"/>
<path d="M9.1875 11.8125C9.07147 11.8125 8.96019 11.7664 8.87814 11.6844C8.79609 11.6023 8.75 11.491 8.75 11.375V3.5C8.75 3.38397 8.79609 3.27269 8.87814 3.19064C8.96019 3.10859 9.07147 3.0625 9.1875 3.0625C9.30353 3.0625 9.41481 3.10859 9.49686 3.19064C9.57891 3.27269 9.625 3.38397 9.625 3.5V11.375C9.625 11.491 9.57891 11.6023 9.49686 11.6844C9.41481 11.7664 9.30353 11.8125 9.1875 11.8125Z" fill="white"/>
<path d="M4.8125 10.5C4.69647 10.5 4.58519 10.4539 4.50314 10.3719C4.42109 10.2898 4.375 10.1785 4.375 10.0625V2.1875C4.375 2.07147 4.42109 1.96019 4.50314 1.87814C4.58519 1.79609 4.69647 1.75 4.8125 1.75C4.92853 1.75 5.03981 1.79609 5.12186 1.87814C5.20391 1.96019 5.25 2.07147 5.25 2.1875V10.0625C5.25 10.1785 5.20391 10.2898 5.12186 10.3719C5.03981 10.4539 4.92853 10.5 4.8125 10.5Z" fill="white"/>
</svg>
