<svg width="14" height="14" viewBox="0 0 14 14" fill="none" xmlns="http://www.w3.org/2000/svg">
<path d="M13.8515 13.1227L10.6077 9.87867C10.6052 9.87612 10.6017 9.87469 10.5981 9.87469C10.5865 9.87469 10.5803 9.86111 10.5877 9.85224C11.5762 8.67504 12.0751 7.16276 11.9806 5.62771C11.8855 4.08289 11.1967 2.63468 10.0584 1.58603C8.92009 0.537388 7.42041 -0.0304647 5.87305 0.00126127C4.3257 0.0329873 2.85055 0.661835 1.75618 1.75626C0.661804 2.85068 0.0329857 4.3259 0.00126121 5.87333C-0.0304633 7.42075 0.537363 8.92051 1.58596 10.0589C2.63456 11.1972 4.0827 11.886 5.62745 11.9811C7.1722 12.0763 8.6939 11.5704 9.87423 10.5693C9.89007 10.5534 9.88313 10.6131 9.89896 10.629L13.122 13.8522C13.1685 13.899 13.2238 13.9362 13.2846 13.9616C13.3455 13.9869 13.4108 14 13.4768 14C13.5428 14 13.6081 13.9869 13.669 13.9616C13.7298 13.9362 13.7851 13.899 13.8316 13.8522C13.8828 13.8068 13.9242 13.7514 13.9531 13.6894C13.982 13.6274 13.9979 13.5602 13.9998 13.4918C14.0017 13.4234 13.9895 13.3553 13.964 13.2918C13.9385 13.2283 13.9002 13.1707 13.8515 13.1227ZM6.00184 10.979C5.0136 10.979 4.04755 10.6859 3.22586 10.1369C2.40417 9.58781 1.76374 8.80741 1.38556 7.89435C1.00737 6.98129 0.908422 5.97659 1.10122 5.00729C1.29401 4.038 1.7699 3.14764 2.46869 2.44882C3.16748 1.74999 4.0578 1.27409 5.02705 1.08128C5.9963 0.888477 7.00095 0.987431 7.91397 1.36563C8.82698 1.74383 9.60735 2.38429 10.1564 3.20602C10.7054 4.02775 10.9985 4.99385 10.9985 5.98213C10.9985 6.63833 10.8692 7.2881 10.6181 7.89435C10.367 8.5006 9.99897 9.05145 9.53499 9.51545C9.07101 9.97945 8.52019 10.3475 7.91397 10.5986C7.30775 10.8497 6.65801 10.979 6.00184 10.979Z" fill="white"/>
</svg>
